<?xml version="1.0" encoding="utf-8" ?>
<svg xmlns="http://www.w3.org/2000/svg" xmlns:xlink="http://www.w3.org/1999/xlink" width="1761" height="360">
	<path fill="rgb(255,255,255)" stroke="none" d="M0 0L1761 0L1761 360L0 360L0 0Z"/>
	<defs>
		<clipPath id="clip_0">
			<path d="M1170 121L986 121Q985.795 121 985.592 121.009Q985.388 121.019 985.186 121.037Q984.985 121.056 984.785 121.084Q984.585 121.112 984.388 121.149Q984.192 121.186 983.998 121.232Q983.804 121.278 983.613 121.334Q983.423 121.389 983.236 121.453Q983.049 121.517 982.867 121.591Q982.684 121.664 982.506 121.745Q982.328 121.827 982.155 121.917Q981.982 122.007 981.814 122.106Q981.646 122.204 981.484 122.311Q981.322 122.417 981.166 122.532Q981.009 122.646 980.859 122.768Q980.709 122.89 980.566 123.02Q980.422 123.149 980.286 123.286Q980.149 123.422 980.02 123.566Q979.89 123.709 979.768 123.859Q979.646 124.009 979.532 124.166Q979.417 124.322 979.311 124.484Q979.204 124.646 979.106 124.814Q979.007 124.982 978.917 125.155Q978.827 125.328 978.745 125.506Q978.664 125.684 978.591 125.867Q978.518 126.049 978.453 126.236Q978.389 126.423 978.334 126.613Q978.279 126.804 978.232 126.998Q978.186 127.192 978.149 127.389Q978.112 127.585 978.084 127.785Q978.056 127.985 978.037 128.186Q978.019 128.388 978.009 128.592Q978 128.795 978 129L978 313Q978 313.205 978.009 313.408Q978.019 313.612 978.037 313.814Q978.056 314.016 978.084 314.215Q978.112 314.415 978.149 314.612Q978.186 314.808 978.232 315.002Q978.279 315.196 978.334 315.387Q978.389 315.577 978.453 315.764Q978.518 315.951 978.591 316.133Q978.664 316.316 978.745 316.494Q978.827 316.672 978.917 316.845Q979.007 317.018 979.106 317.186Q979.204 317.354 979.311 317.516Q979.417 317.678 979.532 317.834Q979.646 317.991 979.768 318.141Q979.89 318.291 980.02 318.434Q980.149 318.578 980.286 318.714Q980.422 318.851 980.566 318.98Q980.709 319.11 980.859 319.232Q981.009 319.354 981.166 319.468Q981.322 319.583 981.484 319.689Q981.646 319.796 981.814 319.894Q981.982 319.993 982.155 320.083Q982.328 320.173 982.506 320.255Q982.684 320.336 982.867 320.41Q983.049 320.483 983.236 320.547Q983.423 320.611 983.613 320.666Q983.804 320.722 983.998 320.768Q984.192 320.814 984.389 320.851Q984.585 320.888 984.785 320.916Q984.985 320.944 985.186 320.963Q985.388 320.981 985.592 320.991Q985.795 321 986 321L1170 321Q1170.21 321 1170.41 320.991Q1170.61 320.981 1170.81 320.963Q1171.02 320.944 1171.22 320.916Q1171.41 320.888 1171.61 320.851Q1171.81 320.814 1172 320.768Q1172.2 320.722 1172.39 320.666Q1172.58 320.611 1172.76 320.547Q1172.95 320.483 1173.13 320.41Q1173.32 320.336 1173.49 320.255Q1173.67 320.173 1173.84 320.083Q1174.02 319.993 1174.19 319.894Q1174.35 319.796 1174.52 319.689Q1174.68 319.583 1174.83 319.469Q1174.99 319.354 1175.14 319.232Q1175.29 319.11 1175.43 318.98Q1175.58 318.851 1175.71 318.714Q1175.85 318.578 1175.98 318.434Q1176.11 318.291 1176.23 318.141Q1176.35 317.991 1176.47 317.834Q1176.58 317.678 1176.69 317.516Q1176.8 317.354 1176.89 317.186Q1176.99 317.018 1177.08 316.845Q1177.17 316.672 1177.26 316.494Q1177.34 316.316 1177.41 316.133Q1177.48 315.951 1177.55 315.764Q1177.61 315.577 1177.67 315.387Q1177.72 315.196 1177.77 315.002Q1177.81 314.808 1177.85 314.612Q1177.89 314.415 1177.92 314.215Q1177.94 314.016 1177.96 313.814Q1177.98 313.612 1177.99 313.408Q1178 313.205 1178 313L1178 129Q1178 128.795 1177.99 128.592Q1177.98 128.388 1177.96 128.186Q1177.94 127.985 1177.92 127.785Q1177.89 127.585 1177.85 127.389Q1177.81 127.192 1177.77 126.998Q1177.72 126.804 1177.67 126.613Q1177.61 126.423 1177.55 126.236Q1177.48 126.049 1177.41 125.867Q1177.34 125.684 1177.26 125.506Q1177.17 125.328 1177.08 125.155Q1176.99 124.982 1176.89 124.814Q1176.8 124.646 1176.69 124.484Q1176.58 124.322 1176.47 124.166Q1176.35 124.009 1176.23 123.859Q1176.11 123.709 1175.98 123.566Q1175.85 123.422 1175.71 123.286Q1175.58 123.149 1175.43 123.02Q1175.29 122.89 1175.14 122.768Q1174.99 122.646 1174.83 122.532Q1174.68 122.417 1174.52 122.311Q1174.35 122.204 1174.19 122.106Q1174.02 122.007 1173.84 121.917Q1173.67 121.827 1173.49 121.745Q1173.32 121.664 1173.13 121.591Q1172.95 121.517 1172.76 121.453Q1172.58 121.389 1172.39 121.334Q1172.2 121.278 1172 121.232Q1171.81 121.186 1171.61 121.149Q1171.41 121.112 1171.22 121.084Q1171.02 121.056 1170.81 121.037Q1170.61 121.019 1170.41 121.009Q1170.21 121 1170 121Z" clip-rule="evenodd"/>
		</clipPath>
	</defs>
	<g clip-path="url(#clip_0)">
		<path fill="none" stroke="rgb(0,0,0)" stroke-width="8" stroke-miterlimit="4" transform="translate(978 121)" d="M8 0L192 0Q192.205 0 192.408 0.009326Q192.612 0.018652 192.814 0.037285Q193.015 0.055918 193.215 0.0838199Q193.415 0.111722 193.612 0.148836Q193.808 0.18595 194.002 0.2322Q194.196 0.27845 194.387 0.333743Q194.577 0.389035 194.764 0.453256Q194.951 0.517478 195.133 0.590497Q195.316 0.663517 195.494 0.745186Q195.672 0.826855 195.845 0.917006Q196.018 1.00716 196.186 1.10561Q196.354 1.20406 196.516 1.31061Q196.678 1.41715 196.834 1.53158Q196.991 1.64601 197.141 1.76809Q197.291 1.89016 197.434 2.01963Q197.578 2.14911 197.714 2.28571Q197.851 2.42232 197.98 2.56578Q198.11 2.70925 198.232 2.85927Q198.354 3.0093 198.468 3.16558Q198.583 3.32186 198.689 3.48408Q198.796 3.6463 198.894 3.81412Q198.993 3.98195 199.083 4.15504Q199.173 4.32813 199.255 4.50613Q199.337 4.68413 199.41 4.86668Q199.483 5.04923 199.547 5.23595Q199.611 5.42268 199.666 5.61319Q199.722 5.80371 199.768 5.99764Q199.814 6.19157 199.851 6.3885Q199.888 6.58544 199.916 6.78498Q199.944 6.98453 199.963 7.18627Q199.981 7.38802 199.991 7.59155Q200 7.79509 200 8L200 192Q200 192.205 199.991 192.408Q199.981 192.612 199.963 192.814Q199.944 193.015 199.916 193.215Q199.888 193.415 199.851 193.612Q199.814 193.808 199.768 194.002Q199.722 194.196 199.666 194.387Q199.611 194.577 199.547 194.764Q199.483 194.951 199.41 195.133Q199.337 195.316 199.255 195.494Q199.173 195.672 199.083 195.845Q198.993 196.018 198.894 196.186Q198.796 196.354 198.689 196.516Q198.583 196.678 198.468 196.834Q198.354 196.991 198.232 197.141Q198.11 197.291 197.98 197.434Q197.851 197.578 197.714 197.714Q197.578 197.851 197.434 197.98Q197.291 198.11 197.141 198.232Q196.991 198.354 196.834 198.468Q196.678 198.583 196.516 198.689Q196.354 198.796 196.186 198.894Q196.018 198.993 195.845 199.083Q195.672 199.173 195.494 199.255Q195.316 199.336 195.133 199.41Q194.951 199.483 194.764 199.547Q194.577 199.611 194.387 199.666Q194.196 199.722 194.002 199.768Q193.808 199.814 193.612 199.851Q193.415 199.888 193.215 199.916Q193.015 199.944 192.814 199.963Q192.612 199.981 192.408 199.991Q192.205 200 192 200L8 200Q7.79509 200 7.59155 199.991Q7.38802 199.981 7.18627 199.963Q6.98453 199.944 6.78498 199.916Q6.58544 199.888 6.3885 199.851Q6.19157 199.814 5.99764 199.768Q5.80371 199.722 5.6132 199.666Q5.42268 199.611 5.23595 199.547Q5.04923 199.483 4.86668 199.41Q4.68413 199.337 4.50613 199.255Q4.32813 199.173 4.15504 199.083Q3.98195 198.993 3.81412 198.894Q3.6463 198.796 3.48408 198.689Q3.32186 198.583 3.16558 198.468Q3.0093 198.354 2.85927 198.232Q2.70925 198.11 2.56578 197.98Q2.42232 197.851 2.28571 197.714Q2.14911 197.578 2.01963 197.434Q1.89016 197.291 1.76809 197.141Q1.64601 196.991 1.53158 196.834Q1.41715 196.678 1.31061 196.516Q1.20406 196.354 1.10561 196.186Q1.00716 196.018 0.917006 195.845Q0.826855 195.672 0.745186 195.494Q0.663517 195.316 0.590497 195.133Q0.517478 194.951 0.453256 194.764Q0.389035 194.577 0.333743 194.387Q0.27845 194.196 0.2322 194.002Q0.18595 193.808 0.148836 193.612Q0.111722 193.415 0.0838199 193.215Q0.055918 193.015 0.037285 192.814Q0.018652 192.612 0.009326 192.408Q0 192.205 0 192L0 8Q0 7.79509 0.009326 7.59155Q0.018652 7.38802 0.037285 7.18627Q0.055918 6.98453 0.0838199 6.78498Q0.111722 6.58544 0.148836 6.3885Q0.18595 6.19157 0.2322 5.99764Q0.27845 5.80371 0.333743 5.6132Q0.389035 5.42268 0.453256 5.23595Q0.517478 5.04923 0.590497 4.86668Q0.663517 4.68413 0.745186 4.50613Q0.826855 4.32813 0.917006 4.15504Q1.00716 3.98195 1.10561 3.81412Q1.20406 3.6463 1.31061 3.48408Q1.41715 3.32186 1.53158 3.16558Q1.64601 3.0093 1.76809 2.85927Q1.89016 2.70925 2.01963 2.56578Q2.14911 2.42232 2.28571 2.28571Q2.42232 2.14911 2.56578 2.01963Q2.70925 1.89016 2.85927 1.76809Q3.0093 1.64601 3.16558 1.53158Q3.32186 1.41715 3.48408 1.31061Q3.6463 1.20406 3.81412 1.10561Q3.98195 1.00716 4.15504 0.917006Q4.32813 0.826855 4.50613 0.745186Q4.68413 0.663517 4.86668 0.590497Q5.04923 0.517478 5.23595 0.453256Q5.42268 0.389035 5.61319 0.333743Q5.80371 0.27845 5.99764 0.2322Q6.19157 0.18595 6.3885 0.148836Q6.58544 0.111722 6.78498 0.0838199Q6.98453 0.055918 7.18627 0.037285Q7.38802 0.018652 7.59155 0.009326Q7.79509 0 8 0Z"/>
	</g>
	<text fill="rgb(0,0,0)" stroke="none" transform="translate(625 149)" font-size="60" font-family="Fira Mono" x="0" y="56.669998">
			A:3
	</text>
	<text fill="rgb(0,0,0)" stroke="none" transform="translate(625 149)" font-size="60" font-family="Fira Mono" x="0" y="128.67">
			B:0
	</text>
	<text fill="rgb(0,0,0)" stroke="none" transform="translate(1024 149)" font-size="60" font-family="Fira Mono" x="0" y="56.669998">
			A:0
	</text>
	<text fill="rgb(0,0,0)" stroke="none" transform="translate(1024 149)" font-size="60" font-family="Fira Mono" x="0" y="128.67">
			B:2
	</text>
	<defs>
		<clipPath id="clip_1">
			<path d="M771 121L587 121Q586.795 121 586.592 121.009Q586.388 121.019 586.186 121.037Q585.985 121.056 585.785 121.084Q585.586 121.112 585.389 121.149Q585.192 121.186 584.998 121.232Q584.804 121.278 584.613 121.334Q584.423 121.389 584.236 121.453Q584.049 121.517 583.867 121.591Q583.684 121.664 583.506 121.745Q583.328 121.827 583.155 121.917Q582.982 122.007 582.814 122.106Q582.646 122.204 582.484 122.311Q582.322 122.417 582.166 122.532Q582.009 122.646 581.859 122.768Q581.709 122.89 581.566 123.02Q581.422 123.149 581.286 123.286Q581.149 123.422 581.02 123.566Q580.89 123.709 580.768 123.859Q580.646 124.009 580.532 124.166Q580.417 124.322 580.311 124.484Q580.204 124.646 580.106 124.814Q580.007 124.982 579.917 125.155Q579.827 125.328 579.745 125.506Q579.664 125.684 579.591 125.867Q579.518 126.049 579.453 126.236Q579.389 126.423 579.334 126.613Q579.279 126.804 579.232 126.998Q579.186 127.192 579.149 127.389Q579.112 127.585 579.084 127.785Q579.056 127.985 579.037 128.186Q579.019 128.388 579.009 128.592Q579 128.795 579 129L579 313Q579 313.205 579.009 313.408Q579.019 313.612 579.037 313.814Q579.056 314.016 579.084 314.215Q579.112 314.415 579.149 314.612Q579.186 314.808 579.232 315.002Q579.279 315.196 579.334 315.387Q579.389 315.577 579.453 315.764Q579.518 315.951 579.591 316.133Q579.664 316.316 579.745 316.494Q579.827 316.672 579.917 316.845Q580.007 317.018 580.106 317.186Q580.204 317.354 580.311 317.516Q580.417 317.678 580.532 317.834Q580.646 317.991 580.768 318.141Q580.89 318.291 581.02 318.434Q581.149 318.578 581.286 318.714Q581.422 318.851 581.566 318.98Q581.709 319.11 581.859 319.232Q582.009 319.354 582.166 319.468Q582.322 319.583 582.484 319.689Q582.646 319.796 582.814 319.894Q582.982 319.993 583.155 320.083Q583.328 320.173 583.506 320.255Q583.684 320.336 583.867 320.41Q584.049 320.483 584.236 320.547Q584.423 320.611 584.613 320.666Q584.804 320.722 584.998 320.768Q585.192 320.814 585.389 320.851Q585.586 320.888 585.785 320.916Q585.985 320.944 586.186 320.963Q586.388 320.981 586.592 320.991Q586.795 321 587 321L771 321Q771.205 321 771.409 320.991Q771.612 320.981 771.814 320.963Q772.016 320.944 772.215 320.916Q772.415 320.888 772.612 320.851Q772.808 320.814 773.002 320.768Q773.196 320.722 773.387 320.666Q773.577 320.611 773.764 320.547Q773.951 320.483 774.133 320.41Q774.316 320.336 774.494 320.255Q774.672 320.173 774.845 320.083Q775.018 319.993 775.186 319.894Q775.354 319.796 775.516 319.689Q775.678 319.583 775.835 319.469Q775.991 319.354 776.141 319.232Q776.291 319.11 776.434 318.98Q776.578 318.851 776.714 318.714Q776.851 318.578 776.98 318.434Q777.11 318.291 777.232 318.141Q777.354 317.991 777.469 317.834Q777.583 317.678 777.689 317.516Q777.796 317.354 777.894 317.186Q777.993 317.018 778.083 316.845Q778.173 316.672 778.255 316.494Q778.337 316.316 778.41 316.133Q778.483 315.951 778.547 315.764Q778.611 315.577 778.666 315.387Q778.722 315.196 778.768 315.002Q778.814 314.808 778.851 314.612Q778.888 314.415 778.916 314.215Q778.944 314.016 778.963 313.814Q778.981 313.612 778.991 313.408Q779 313.205 779 313L779 129Q779 128.795 778.991 128.592Q778.981 128.388 778.963 128.186Q778.944 127.985 778.916 127.785Q778.888 127.585 778.851 127.389Q778.814 127.192 778.768 126.998Q778.722 126.804 778.666 126.613Q778.611 126.423 778.547 126.236Q778.483 126.049 778.41 125.867Q778.337 125.684 778.255 125.506Q778.173 125.328 778.083 125.155Q777.993 124.982 777.895 124.814Q777.796 124.646 777.689 124.484Q777.583 124.322 777.468 124.166Q777.354 124.009 777.232 123.859Q777.11 123.709 776.98 123.566Q776.851 123.422 776.714 123.286Q776.578 123.149 776.434 123.02Q776.291 122.89 776.141 122.768Q775.991 122.646 775.834 122.532Q775.678 122.417 775.516 122.311Q775.354 122.204 775.186 122.106Q775.018 122.007 774.845 121.917Q774.672 121.827 774.494 121.745Q774.316 121.664 774.133 121.591Q773.951 121.517 773.764 121.453Q773.577 121.389 773.387 121.334Q773.196 121.278 773.002 121.232Q772.808 121.186 772.612 121.149Q772.415 121.112 772.215 121.084Q772.016 121.056 771.814 121.037Q771.612 121.019 771.409 121.009Q771.205 121 771 121Z" clip-rule="evenodd"/>
		</clipPath>
	</defs>
	<g clip-path="url(#clip_1)">
		<path fill="none" stroke="rgb(0,0,0)" stroke-width="8" stroke-miterlimit="4" transform="translate(579 121)" d="M8 0L192 0Q192.205 0 192.408 0.009326Q192.612 0.018652 192.814 0.037285Q193.015 0.055918 193.215 0.0838199Q193.415 0.111722 193.612 0.148836Q193.808 0.18595 194.002 0.2322Q194.196 0.27845 194.387 0.333743Q194.577 0.389035 194.764 0.453256Q194.951 0.517478 195.133 0.590497Q195.316 0.663517 195.494 0.745186Q195.672 0.826855 195.845 0.917006Q196.018 1.00716 196.186 1.10561Q196.354 1.20406 196.516 1.31061Q196.678 1.41715 196.834 1.53158Q196.991 1.64601 197.141 1.76809Q197.291 1.89016 197.434 2.01963Q197.578 2.14911 197.714 2.28571Q197.851 2.42232 197.98 2.56578Q198.11 2.70925 198.232 2.85927Q198.354 3.0093 198.468 3.16558Q198.583 3.32186 198.689 3.48408Q198.796 3.6463 198.894 3.81412Q198.993 3.98195 199.083 4.15504Q199.173 4.32813 199.255 4.50613Q199.337 4.68413 199.41 4.86668Q199.483 5.04923 199.547 5.23595Q199.611 5.42268 199.666 5.61319Q199.722 5.80371 199.768 5.99764Q199.814 6.19157 199.851 6.3885Q199.888 6.58544 199.916 6.78498Q199.944 6.98453 199.963 7.18627Q199.981 7.38802 199.991 7.59155Q200 7.79509 200 8L200 192Q200 192.205 199.991 192.408Q199.981 192.612 199.963 192.814Q199.944 193.015 199.916 193.215Q199.888 193.415 199.851 193.612Q199.814 193.808 199.768 194.002Q199.722 194.196 199.666 194.387Q199.611 194.577 199.547 194.764Q199.483 194.951 199.41 195.133Q199.337 195.316 199.255 195.494Q199.173 195.672 199.083 195.845Q198.993 196.018 198.894 196.186Q198.796 196.354 198.689 196.516Q198.583 196.678 198.468 196.834Q198.354 196.991 198.232 197.141Q198.11 197.291 197.98 197.434Q197.851 197.578 197.714 197.714Q197.578 197.851 197.434 197.98Q197.291 198.11 197.141 198.232Q196.991 198.354 196.834 198.468Q196.678 198.583 196.516 198.689Q196.354 198.796 196.186 198.894Q196.018 198.993 195.845 199.083Q195.672 199.173 195.494 199.255Q195.316 199.336 195.133 199.41Q194.951 199.483 194.764 199.547Q194.577 199.611 194.387 199.666Q194.196 199.722 194.002 199.768Q193.808 199.814 193.612 199.851Q193.415 199.888 193.215 199.916Q193.015 199.944 192.814 199.963Q192.612 199.981 192.408 199.991Q192.205 200 192 200L8 200Q7.79509 200 7.59155 199.991Q7.38802 199.981 7.18627 199.963Q6.98453 199.944 6.78498 199.916Q6.58544 199.888 6.3885 199.851Q6.19157 199.814 5.99764 199.768Q5.80371 199.722 5.6132 199.666Q5.42268 199.611 5.23595 199.547Q5.04923 199.483 4.86668 199.41Q4.68413 199.337 4.50613 199.255Q4.32813 199.173 4.15504 199.083Q3.98195 198.993 3.81412 198.894Q3.6463 198.796 3.48408 198.689Q3.32186 198.583 3.16558 198.468Q3.0093 198.354 2.85927 198.232Q2.70925 198.11 2.56578 197.98Q2.42232 197.851 2.28571 197.714Q2.14911 197.578 2.01963 197.434Q1.89016 197.291 1.76809 197.141Q1.64601 196.991 1.53158 196.834Q1.41715 196.678 1.31061 196.516Q1.20406 196.354 1.10561 196.186Q1.00716 196.018 0.917006 195.845Q0.826855 195.672 0.745186 195.494Q0.663517 195.316 0.590497 195.133Q0.517478 194.951 0.453256 194.764Q0.389035 194.577 0.333743 194.387Q0.27845 194.196 0.2322 194.002Q0.18595 193.808 0.148836 193.612Q0.111722 193.415 0.0838199 193.215Q0.055918 193.015 0.037285 192.814Q0.018652 192.612 0.009326 192.408Q0 192.205 0 192L0 8Q0 7.79509 0.009326 7.59155Q0.018652 7.38802 0.037285 7.18627Q0.055918 6.98453 0.0838199 6.78498Q0.111722 6.58544 0.148836 6.3885Q0.18595 6.19157 0.2322 5.99764Q0.27845 5.80371 0.333743 5.6132Q0.389035 5.42268 0.453256 5.23595Q0.517478 5.04923 0.590497 4.86668Q0.663517 4.68413 0.745186 4.50613Q0.826855 4.32813 0.917006 4.15504Q1.00716 3.98195 1.10561 3.81412Q1.20406 3.6463 1.31061 3.48408Q1.41715 3.32186 1.53158 3.16558Q1.64601 3.0093 1.76809 2.85927Q1.89016 2.70925 2.01963 2.56578Q2.14911 2.42232 2.28571 2.28571Q2.42232 2.14911 2.56578 2.01963Q2.70925 1.89016 2.85927 1.76809Q3.0093 1.64601 3.16558 1.53158Q3.32186 1.41715 3.48408 1.31061Q3.6463 1.20406 3.81412 1.10561Q3.98195 1.00716 4.15504 0.917006Q4.32813 0.826855 4.50613 0.745186Q4.68413 0.663517 4.86668 0.590497Q5.04923 0.517478 5.23595 0.453256Q5.42268 0.389035 5.61319 0.333743Q5.80371 0.27845 5.99764 0.2322Q6.19157 0.18595 6.3885 0.148836Q6.58544 0.111722 6.78498 0.0838199Q6.98453 0.055918 7.18627 0.037285Q7.38802 0.018652 7.59155 0.009326Q7.79509 0 8 0Z"/>
	</g>
	<text fill="rgb(0,0,0)" stroke="none" transform="translate(995 31)" font-size="42" font-family="Noto Sans CJK JP Regular, Noto Sans CJK JP" x="0" y="43.392998">
			マシン B
	</text>
	<text fill="rgb(0,0,0)" stroke="none" transform="translate(595 31)" font-size="42" font-family="Noto Sans CJK JP Regular, Noto Sans CJK JP" x="0" y="43.392998">
			マシン A
	</text>
	<path fill="rgb(245,165,35)" stroke="none" transform="matrix(-1 0 0 1 1435.29 181)" d="M0 20.2909L175.291 20L175.291 0L215.291 39.4978L175.291 80L175.291 60L0 60.2909L0 20.2909Z"/>
	<text fill="rgb(0,0,0)" stroke="none" transform="translate(1258 147)" font-size="36" font-family="Noto Sans CJK JP Regular, Noto Sans CJK JP" x="0" y="37.194">
			リクエストの流入
	</text>
	<path fill="rgb(245,165,35)" stroke="none" transform="translate(326 181)" d="M0 20.2909L175.291 20L175.291 0L215.291 39.4978L175.291 80L175.291 60L0 60.2909L0 20.2909Z"/>
	<text fill="rgb(0,0,0)" stroke="none" transform="translate(211 147)" font-size="36" font-family="Noto Sans CJK JP Regular, Noto Sans CJK JP" x="0" y="37.194">
			リクエストの流入
	</text>
</svg>
