<?xml version="1.0" encoding="utf-8" ?>
<svg xmlns="http://www.w3.org/2000/svg" xmlns:xlink="http://www.w3.org/1999/xlink" width="1761" height="360">
	<path fill="rgb(255,255,255)" stroke="none" d="M0 0L1761 0L1761 360L0 360L0 0Z"/>
	<text fill="rgb(0,0,0)" stroke="none" transform="translate(981 24)" font-size="42" font-family="Noto Sans CJK JP Regular, Noto Sans CJK JP" x="0" y="43.392998">
			マシン B
	</text>
	<defs>
		<clipPath id="clip_0">
			<path d="M1171 119L987 119Q986.795 119 986.592 119.009Q986.388 119.019 986.186 119.037Q985.985 119.056 985.785 119.084Q985.586 119.112 985.388 119.149Q985.192 119.186 984.998 119.232Q984.804 119.278 984.613 119.334Q984.423 119.389 984.236 119.453Q984.049 119.518 983.867 119.591Q983.684 119.664 983.506 119.745Q983.328 119.827 983.155 119.917Q982.982 120.007 982.814 120.106Q982.646 120.204 982.484 120.311Q982.322 120.417 982.166 120.532Q982.009 120.646 981.859 120.768Q981.709 120.89 981.566 121.02Q981.422 121.149 981.286 121.286Q981.149 121.422 981.02 121.566Q980.89 121.709 980.768 121.859Q980.646 122.009 980.532 122.166Q980.417 122.322 980.311 122.484Q980.204 122.646 980.106 122.814Q980.007 122.982 979.917 123.155Q979.827 123.328 979.745 123.506Q979.664 123.684 979.591 123.867Q979.518 124.049 979.453 124.236Q979.389 124.423 979.334 124.613Q979.279 124.804 979.232 124.998Q979.186 125.192 979.149 125.388Q979.112 125.585 979.084 125.785Q979.056 125.985 979.037 126.186Q979.019 126.388 979.009 126.592Q979 126.795 979 127L979 311Q979 311.205 979.009 311.408Q979.019 311.612 979.037 311.814Q979.056 312.015 979.084 312.215Q979.112 312.415 979.149 312.612Q979.186 312.808 979.232 313.002Q979.279 313.196 979.334 313.387Q979.389 313.577 979.453 313.764Q979.518 313.951 979.591 314.133Q979.664 314.316 979.745 314.494Q979.827 314.672 979.917 314.845Q980.007 315.018 980.106 315.186Q980.204 315.354 980.311 315.516Q980.417 315.678 980.532 315.834Q980.646 315.991 980.768 316.141Q980.89 316.291 981.02 316.434Q981.149 316.578 981.286 316.714Q981.422 316.851 981.566 316.98Q981.709 317.11 981.859 317.232Q982.009 317.354 982.166 317.468Q982.322 317.583 982.484 317.689Q982.646 317.796 982.814 317.894Q982.982 317.993 983.155 318.083Q983.328 318.173 983.506 318.255Q983.684 318.337 983.867 318.41Q984.049 318.483 984.236 318.547Q984.423 318.611 984.613 318.666Q984.804 318.722 984.998 318.768Q985.192 318.814 985.388 318.851Q985.586 318.888 985.785 318.916Q985.985 318.944 986.186 318.963Q986.388 318.981 986.592 318.991Q986.795 319 987 319L1171 319Q1171.2 319 1171.41 318.991Q1171.61 318.981 1171.81 318.963Q1172.02 318.944 1172.22 318.916Q1172.41 318.888 1172.61 318.851Q1172.81 318.814 1173 318.768Q1173.2 318.722 1173.39 318.666Q1173.58 318.611 1173.76 318.547Q1173.95 318.483 1174.13 318.41Q1174.32 318.337 1174.49 318.255Q1174.67 318.173 1174.85 318.083Q1175.02 317.993 1175.19 317.894Q1175.35 317.796 1175.52 317.689Q1175.68 317.583 1175.83 317.468Q1175.99 317.354 1176.14 317.232Q1176.29 317.11 1176.43 316.98Q1176.58 316.851 1176.71 316.714Q1176.85 316.578 1176.98 316.434Q1177.11 316.291 1177.23 316.141Q1177.35 315.991 1177.47 315.834Q1177.58 315.678 1177.69 315.516Q1177.8 315.354 1177.89 315.186Q1177.99 315.018 1178.08 314.845Q1178.17 314.672 1178.26 314.494Q1178.34 314.316 1178.41 314.133Q1178.48 313.951 1178.55 313.764Q1178.61 313.577 1178.67 313.387Q1178.72 313.196 1178.77 313.002Q1178.81 312.808 1178.85 312.612Q1178.89 312.415 1178.92 312.215Q1178.94 312.015 1178.96 311.814Q1178.98 311.612 1178.99 311.408Q1179 311.205 1179 311L1179 127Q1179 126.795 1178.99 126.592Q1178.98 126.388 1178.96 126.186Q1178.94 125.985 1178.92 125.785Q1178.89 125.585 1178.85 125.388Q1178.81 125.192 1178.77 124.998Q1178.72 124.804 1178.67 124.613Q1178.61 124.423 1178.55 124.236Q1178.48 124.049 1178.41 123.867Q1178.34 123.684 1178.25 123.506Q1178.17 123.328 1178.08 123.155Q1177.99 122.982 1177.89 122.814Q1177.8 122.646 1177.69 122.484Q1177.58 122.322 1177.47 122.166Q1177.35 122.009 1177.23 121.859Q1177.11 121.709 1176.98 121.566Q1176.85 121.422 1176.71 121.286Q1176.58 121.149 1176.43 121.02Q1176.29 120.89 1176.14 120.768Q1175.99 120.646 1175.83 120.532Q1175.68 120.417 1175.52 120.311Q1175.35 120.204 1175.19 120.106Q1175.02 120.007 1174.85 119.917Q1174.67 119.827 1174.49 119.745Q1174.32 119.664 1174.13 119.591Q1173.95 119.518 1173.76 119.453Q1173.58 119.389 1173.39 119.334Q1173.2 119.278 1173 119.232Q1172.81 119.186 1172.61 119.149Q1172.41 119.112 1172.22 119.084Q1172.02 119.056 1171.81 119.037Q1171.61 119.019 1171.41 119.009Q1171.2 119 1171 119Z" clip-rule="evenodd"/>
		</clipPath>
	</defs>
	<g clip-path="url(#clip_0)">
		<path fill="none" stroke="rgb(0,0,0)" stroke-width="8" stroke-miterlimit="4" transform="translate(979 119)" d="M8 0L192 0Q192.205 0 192.408 0.009326Q192.612 0.018652 192.814 0.037285Q193.015 0.055918 193.215 0.0838199Q193.415 0.111722 193.612 0.148836Q193.808 0.18595 194.002 0.2322Q194.196 0.27845 194.387 0.333743Q194.577 0.389035 194.764 0.453256Q194.951 0.517478 195.133 0.590497Q195.316 0.663517 195.494 0.745186Q195.672 0.826855 195.845 0.917006Q196.018 1.00716 196.186 1.10561Q196.354 1.20406 196.516 1.31061Q196.678 1.41715 196.834 1.53158Q196.991 1.64601 197.141 1.76809Q197.291 1.89016 197.434 2.01963Q197.578 2.14911 197.714 2.28571Q197.851 2.42232 197.98 2.56578Q198.11 2.70925 198.232 2.85927Q198.354 3.0093 198.468 3.16558Q198.583 3.32186 198.689 3.48408Q198.796 3.6463 198.894 3.81412Q198.993 3.98195 199.083 4.15504Q199.173 4.32813 199.255 4.50613Q199.337 4.68413 199.41 4.86668Q199.483 5.04923 199.547 5.23595Q199.611 5.42268 199.666 5.61319Q199.722 5.80371 199.768 5.99764Q199.814 6.19157 199.851 6.3885Q199.888 6.58544 199.916 6.78498Q199.944 6.98453 199.963 7.18627Q199.981 7.38802 199.991 7.59155Q200 7.79509 200 8L200 192Q200 192.205 199.991 192.408Q199.981 192.612 199.963 192.814Q199.944 193.015 199.916 193.215Q199.888 193.415 199.851 193.612Q199.814 193.808 199.768 194.002Q199.722 194.196 199.666 194.387Q199.611 194.577 199.547 194.764Q199.483 194.951 199.41 195.133Q199.337 195.316 199.255 195.494Q199.173 195.672 199.083 195.845Q198.993 196.018 198.894 196.186Q198.796 196.354 198.689 196.516Q198.583 196.678 198.468 196.834Q198.354 196.991 198.232 197.141Q198.11 197.291 197.98 197.434Q197.851 197.578 197.714 197.714Q197.578 197.851 197.434 197.98Q197.291 198.11 197.141 198.232Q196.991 198.354 196.834 198.468Q196.678 198.583 196.516 198.689Q196.354 198.796 196.186 198.894Q196.018 198.993 195.845 199.083Q195.672 199.173 195.494 199.255Q195.316 199.336 195.133 199.41Q194.951 199.483 194.764 199.547Q194.577 199.611 194.387 199.666Q194.196 199.722 194.002 199.768Q193.808 199.814 193.612 199.851Q193.415 199.888 193.215 199.916Q193.015 199.944 192.814 199.963Q192.612 199.981 192.408 199.991Q192.205 200 192 200L8 200Q7.79509 200 7.59155 199.991Q7.38802 199.981 7.18627 199.963Q6.98453 199.944 6.78498 199.916Q6.58544 199.888 6.3885 199.851Q6.19157 199.814 5.99764 199.768Q5.80371 199.722 5.6132 199.666Q5.42268 199.611 5.23595 199.547Q5.04923 199.483 4.86668 199.41Q4.68413 199.337 4.50613 199.255Q4.32813 199.173 4.15504 199.083Q3.98195 198.993 3.81412 198.894Q3.6463 198.796 3.48408 198.689Q3.32186 198.583 3.16558 198.468Q3.0093 198.354 2.85927 198.232Q2.70925 198.11 2.56578 197.98Q2.42232 197.851 2.28571 197.714Q2.14911 197.578 2.01963 197.434Q1.89016 197.291 1.76809 197.141Q1.64601 196.991 1.53158 196.834Q1.41715 196.678 1.31061 196.516Q1.20406 196.354 1.10561 196.186Q1.00716 196.018 0.917006 195.845Q0.826855 195.672 0.745186 195.494Q0.663517 195.316 0.590497 195.133Q0.517478 194.951 0.453256 194.764Q0.389035 194.577 0.333743 194.387Q0.27845 194.196 0.2322 194.002Q0.18595 193.808 0.148836 193.612Q0.111722 193.415 0.0838199 193.215Q0.055918 193.015 0.037285 192.814Q0.018652 192.612 0.009326 192.408Q0 192.205 0 192L0 8Q0 7.79509 0.009326 7.59155Q0.018652 7.38802 0.037285 7.18627Q0.055918 6.98453 0.0838199 6.78498Q0.111722 6.58544 0.148836 6.3885Q0.18595 6.19157 0.2322 5.99764Q0.27845 5.80371 0.333743 5.6132Q0.389035 5.42268 0.453256 5.23595Q0.517478 5.04923 0.590497 4.86668Q0.663517 4.68413 0.745186 4.50613Q0.826855 4.32813 0.917006 4.15504Q1.00716 3.98195 1.10561 3.81412Q1.20406 3.6463 1.31061 3.48408Q1.41715 3.32186 1.53158 3.16558Q1.64601 3.0093 1.76809 2.85927Q1.89016 2.70925 2.01963 2.56578Q2.14911 2.42232 2.28571 2.28571Q2.42232 2.14911 2.56578 2.01963Q2.70925 1.89016 2.85927 1.76809Q3.0093 1.64601 3.16558 1.53158Q3.32186 1.41715 3.48408 1.31061Q3.6463 1.20406 3.81412 1.10561Q3.98195 1.00716 4.15504 0.917006Q4.32813 0.826855 4.50613 0.745186Q4.68413 0.663517 4.86668 0.590497Q5.04923 0.517478 5.23595 0.453256Q5.42268 0.389035 5.61319 0.333743Q5.80371 0.27845 5.99764 0.2322Q6.19157 0.18595 6.3885 0.148836Q6.58544 0.111722 6.78498 0.0838199Q6.98453 0.055918 7.18627 0.037285Q7.38802 0.018652 7.59155 0.009326Q7.79509 0 8 0Z"/>
	</g>
	<text fill="rgb(0,0,0)" stroke="none" transform="translate(583 24)" font-size="42" font-family="Noto Sans CJK JP Regular, Noto Sans CJK JP" x="0" y="43.392998">
			マシン
	</text>
	<text fill="rgb(0,0,0)" stroke="none" transform="translate(583 24)" font-size="36" font-family="Noto Sans CJK JP Regular, Noto Sans CJK JP" x="126" y="43.392998">

	</text>
	<text fill="rgb(0,0,0)" stroke="none" transform="translate(583 24)" font-size="42" font-family="Noto Sans CJK JP Regular, Noto Sans CJK JP" x="134.064" y="43.392998">
			A
	</text>
	<text fill="rgb(0,0,0)" stroke="none" transform="translate(656 171)" font-size="80" font-family="Fira Mono" x="0" y="75.559998">
			0
	</text>
	<text fill="rgb(0,0,0)" stroke="none" transform="translate(1055 171)" font-size="80" font-family="Fira Mono" x="0" y="75.559998">
			0
	</text>
	<defs>
		<clipPath id="clip_1">
			<path d="M772 119L588 119Q587.795 119 587.592 119.009Q587.388 119.019 587.186 119.037Q586.984 119.056 586.785 119.084Q586.585 119.112 586.389 119.149Q586.192 119.186 585.998 119.232Q585.804 119.278 585.613 119.334Q585.423 119.389 585.236 119.453Q585.049 119.518 584.867 119.591Q584.684 119.664 584.506 119.745Q584.328 119.827 584.155 119.917Q583.982 120.007 583.814 120.106Q583.646 120.204 583.484 120.311Q583.322 120.417 583.166 120.532Q583.009 120.646 582.859 120.768Q582.709 120.89 582.566 121.02Q582.422 121.149 582.286 121.286Q582.149 121.422 582.02 121.566Q581.89 121.709 581.768 121.859Q581.646 122.009 581.532 122.166Q581.417 122.322 581.311 122.484Q581.204 122.646 581.106 122.814Q581.007 122.982 580.917 123.155Q580.827 123.328 580.745 123.506Q580.664 123.684 580.591 123.867Q580.518 124.049 580.453 124.236Q580.389 124.423 580.334 124.613Q580.279 124.804 580.232 124.998Q580.186 125.192 580.149 125.388Q580.112 125.585 580.084 125.785Q580.056 125.985 580.037 126.186Q580.019 126.388 580.009 126.592Q580 126.795 580 127L580 311Q580 311.205 580.009 311.408Q580.019 311.612 580.037 311.814Q580.056 312.015 580.084 312.215Q580.112 312.415 580.149 312.612Q580.186 312.808 580.232 313.002Q580.279 313.196 580.334 313.387Q580.389 313.577 580.453 313.764Q580.518 313.951 580.591 314.133Q580.664 314.316 580.745 314.494Q580.827 314.672 580.917 314.845Q581.007 315.018 581.106 315.186Q581.204 315.354 581.311 315.516Q581.417 315.678 581.532 315.834Q581.646 315.991 581.768 316.141Q581.89 316.291 582.02 316.434Q582.149 316.578 582.286 316.714Q582.422 316.851 582.566 316.98Q582.709 317.11 582.859 317.232Q583.009 317.354 583.166 317.468Q583.322 317.583 583.484 317.689Q583.646 317.796 583.814 317.894Q583.982 317.993 584.155 318.083Q584.328 318.173 584.506 318.255Q584.684 318.337 584.867 318.41Q585.049 318.483 585.236 318.547Q585.423 318.611 585.613 318.666Q585.804 318.722 585.998 318.768Q586.192 318.814 586.389 318.851Q586.585 318.888 586.785 318.916Q586.984 318.944 587.186 318.963Q587.388 318.981 587.592 318.991Q587.795 319 588 319L772 319Q772.205 319 772.409 318.991Q772.612 318.981 772.814 318.963Q773.016 318.944 773.215 318.916Q773.414 318.888 773.611 318.851Q773.808 318.814 774.002 318.768Q774.196 318.722 774.387 318.666Q774.577 318.611 774.764 318.547Q774.951 318.483 775.133 318.41Q775.316 318.337 775.494 318.255Q775.672 318.173 775.845 318.083Q776.018 317.993 776.186 317.894Q776.354 317.796 776.516 317.689Q776.678 317.583 776.835 317.468Q776.991 317.354 777.141 317.232Q777.291 317.11 777.434 316.98Q777.578 316.851 777.714 316.714Q777.851 316.578 777.98 316.434Q778.11 316.291 778.232 316.141Q778.354 315.991 778.469 315.834Q778.583 315.678 778.69 315.516Q778.796 315.354 778.895 315.186Q778.993 315.018 779.083 314.845Q779.173 314.672 779.255 314.494Q779.337 314.316 779.41 314.133Q779.483 313.951 779.547 313.764Q779.611 313.577 779.666 313.387Q779.722 313.196 779.768 313.002Q779.814 312.808 779.851 312.612Q779.888 312.415 779.916 312.215Q779.944 312.015 779.963 311.814Q779.981 311.612 779.991 311.408Q780 311.205 780 311L780 127Q780 126.795 779.991 126.592Q779.981 126.388 779.963 126.186Q779.944 125.985 779.916 125.785Q779.888 125.585 779.851 125.388Q779.814 125.192 779.768 124.998Q779.722 124.804 779.666 124.613Q779.611 124.423 779.547 124.236Q779.483 124.049 779.41 123.867Q779.337 123.684 779.255 123.506Q779.173 123.328 779.083 123.155Q778.993 122.982 778.895 122.814Q778.796 122.646 778.69 122.484Q778.583 122.322 778.469 122.166Q778.354 122.009 778.232 121.859Q778.11 121.709 777.981 121.566Q777.851 121.422 777.714 121.286Q777.578 121.149 777.434 121.02Q777.291 120.89 777.141 120.768Q776.991 120.646 776.834 120.532Q776.678 120.417 776.516 120.311Q776.354 120.204 776.186 120.106Q776.018 120.007 775.845 119.917Q775.672 119.827 775.494 119.745Q775.316 119.664 775.133 119.591Q774.951 119.518 774.764 119.453Q774.577 119.389 774.387 119.334Q774.196 119.278 774.002 119.232Q773.809 119.186 773.612 119.149Q773.415 119.112 773.215 119.084Q773.016 119.056 772.814 119.037Q772.612 119.019 772.409 119.009Q772.205 119 772 119Z" clip-rule="evenodd"/>
		</clipPath>
	</defs>
	<g clip-path="url(#clip_1)">
		<path fill="none" stroke="rgb(0,0,0)" stroke-width="8" stroke-miterlimit="4" transform="translate(580 119)" d="M8 0L192 0Q192.205 0 192.408 0.009326Q192.612 0.018652 192.814 0.037285Q193.015 0.055918 193.215 0.0838199Q193.415 0.111722 193.612 0.148836Q193.808 0.18595 194.002 0.2322Q194.196 0.27845 194.387 0.333743Q194.577 0.389035 194.764 0.453256Q194.951 0.517478 195.133 0.590497Q195.316 0.663517 195.494 0.745186Q195.672 0.826855 195.845 0.917006Q196.018 1.00716 196.186 1.10561Q196.354 1.20406 196.516 1.31061Q196.678 1.41715 196.834 1.53158Q196.991 1.64601 197.141 1.76809Q197.291 1.89016 197.434 2.01963Q197.578 2.14911 197.714 2.28571Q197.851 2.42232 197.98 2.56578Q198.11 2.70925 198.232 2.85927Q198.354 3.0093 198.468 3.16558Q198.583 3.32186 198.689 3.48408Q198.796 3.6463 198.894 3.81412Q198.993 3.98195 199.083 4.15504Q199.173 4.32813 199.255 4.50613Q199.337 4.68413 199.41 4.86668Q199.483 5.04923 199.547 5.23595Q199.611 5.42268 199.666 5.61319Q199.722 5.80371 199.768 5.99764Q199.814 6.19157 199.851 6.3885Q199.888 6.58544 199.916 6.78498Q199.944 6.98453 199.963 7.18627Q199.981 7.38802 199.991 7.59155Q200 7.79509 200 8L200 192Q200 192.205 199.991 192.408Q199.981 192.612 199.963 192.814Q199.944 193.015 199.916 193.215Q199.888 193.415 199.851 193.612Q199.814 193.808 199.768 194.002Q199.722 194.196 199.666 194.387Q199.611 194.577 199.547 194.764Q199.483 194.951 199.41 195.133Q199.337 195.316 199.255 195.494Q199.173 195.672 199.083 195.845Q198.993 196.018 198.894 196.186Q198.796 196.354 198.689 196.516Q198.583 196.678 198.468 196.834Q198.354 196.991 198.232 197.141Q198.11 197.291 197.98 197.434Q197.851 197.578 197.714 197.714Q197.578 197.851 197.434 197.98Q197.291 198.11 197.141 198.232Q196.991 198.354 196.834 198.468Q196.678 198.583 196.516 198.689Q196.354 198.796 196.186 198.894Q196.018 198.993 195.845 199.083Q195.672 199.173 195.494 199.255Q195.316 199.336 195.133 199.41Q194.951 199.483 194.764 199.547Q194.577 199.611 194.387 199.666Q194.196 199.722 194.002 199.768Q193.808 199.814 193.612 199.851Q193.415 199.888 193.215 199.916Q193.015 199.944 192.814 199.963Q192.612 199.981 192.408 199.991Q192.205 200 192 200L8 200Q7.79509 200 7.59155 199.991Q7.38802 199.981 7.18627 199.963Q6.98453 199.944 6.78498 199.916Q6.58544 199.888 6.3885 199.851Q6.19157 199.814 5.99764 199.768Q5.80371 199.722 5.6132 199.666Q5.42268 199.611 5.23595 199.547Q5.04923 199.483 4.86668 199.41Q4.68413 199.337 4.50613 199.255Q4.32813 199.173 4.15504 199.083Q3.98195 198.993 3.81412 198.894Q3.6463 198.796 3.48408 198.689Q3.32186 198.583 3.16558 198.468Q3.0093 198.354 2.85927 198.232Q2.70925 198.11 2.56578 197.98Q2.42232 197.851 2.28571 197.714Q2.14911 197.578 2.01963 197.434Q1.89016 197.291 1.76809 197.141Q1.64601 196.991 1.53158 196.834Q1.41715 196.678 1.31061 196.516Q1.20406 196.354 1.10561 196.186Q1.00716 196.018 0.917006 195.845Q0.826855 195.672 0.745186 195.494Q0.663517 195.316 0.590497 195.133Q0.517478 194.951 0.453256 194.764Q0.389035 194.577 0.333743 194.387Q0.27845 194.196 0.2322 194.002Q0.18595 193.808 0.148836 193.612Q0.111722 193.415 0.0838199 193.215Q0.055918 193.015 0.037285 192.814Q0.018652 192.612 0.009326 192.408Q0 192.205 0 192L0 8Q0 7.79509 0.009326 7.59155Q0.018652 7.38802 0.037285 7.18627Q0.055918 6.98453 0.0838199 6.78498Q0.111722 6.58544 0.148836 6.3885Q0.18595 6.19157 0.2322 5.99764Q0.27845 5.80371 0.333743 5.6132Q0.389035 5.42268 0.453256 5.23595Q0.517478 5.04923 0.590497 4.86668Q0.663517 4.68413 0.745186 4.50613Q0.826855 4.32813 0.917006 4.15504Q1.00716 3.98195 1.10561 3.81412Q1.20406 3.6463 1.31061 3.48408Q1.41715 3.32186 1.53158 3.16558Q1.64601 3.0093 1.76809 2.85927Q1.89016 2.70925 2.01963 2.56578Q2.14911 2.42232 2.28571 2.28571Q2.42232 2.14911 2.56578 2.01963Q2.70925 1.89016 2.85927 1.76809Q3.0093 1.64601 3.16558 1.53158Q3.32186 1.41715 3.48408 1.31061Q3.6463 1.20406 3.81412 1.10561Q3.98195 1.00716 4.15504 0.917006Q4.32813 0.826855 4.50613 0.745186Q4.68413 0.663517 4.86668 0.590497Q5.04923 0.517478 5.23595 0.453256Q5.42268 0.389035 5.61319 0.333743Q5.80371 0.27845 5.99764 0.2322Q6.19157 0.18595 6.3885 0.148836Q6.58544 0.111722 6.78498 0.0838199Q6.98453 0.055918 7.18627 0.037285Q7.38802 0.018652 7.59155 0.009326Q7.79509 0 8 0Z"/>
	</g>
</svg>
