<?xml version="1.0" encoding="utf-8" ?>
<svg xmlns="http://www.w3.org/2000/svg" xmlns:xlink="http://www.w3.org/1999/xlink" width="1761" height="660">
	<path fill="rgb(255,255,255)" stroke="none" d="M0 0L1761 0L1761 660L0 660L0 0Z"/>
	<defs>
		<clipPath id="clip_0">
			<path d="M1171 420L987 420Q986.795 420 986.592 420.009Q986.388 420.019 986.186 420.037Q985.985 420.056 985.785 420.084Q985.586 420.112 985.388 420.149Q985.192 420.186 984.998 420.232Q984.804 420.279 984.613 420.334Q984.423 420.389 984.236 420.453Q984.049 420.518 983.867 420.591Q983.684 420.664 983.506 420.745Q983.328 420.827 983.155 420.917Q982.982 421.007 982.814 421.106Q982.646 421.204 982.484 421.311Q982.322 421.417 982.166 421.532Q982.009 421.646 981.859 421.768Q981.709 421.89 981.566 422.02Q981.422 422.149 981.286 422.286Q981.149 422.422 981.02 422.566Q980.89 422.709 980.768 422.859Q980.646 423.009 980.532 423.166Q980.417 423.322 980.311 423.484Q980.204 423.646 980.106 423.814Q980.007 423.982 979.917 424.155Q979.827 424.328 979.745 424.506Q979.664 424.684 979.591 424.867Q979.518 425.049 979.453 425.236Q979.389 425.423 979.334 425.613Q979.279 425.804 979.232 425.998Q979.186 426.192 979.149 426.389Q979.112 426.586 979.084 426.785Q979.056 426.985 979.037 427.186Q979.019 427.388 979.009 427.592Q979 427.795 979 428L979 612Q979 612.205 979.009 612.409Q979.019 612.612 979.037 612.814Q979.056 613.016 979.084 613.215Q979.112 613.415 979.149 613.612Q979.186 613.809 979.232 614.002Q979.279 614.196 979.334 614.387Q979.389 614.577 979.453 614.764Q979.518 614.951 979.591 615.133Q979.664 615.316 979.745 615.494Q979.827 615.672 979.917 615.845Q980.007 616.018 980.106 616.186Q980.204 616.354 980.311 616.516Q980.417 616.678 980.532 616.835Q980.646 616.991 980.768 617.141Q980.89 617.291 981.02 617.434Q981.149 617.578 981.286 617.714Q981.422 617.851 981.566 617.98Q981.709 618.11 981.859 618.232Q982.009 618.354 982.166 618.468Q982.322 618.583 982.484 618.689Q982.646 618.796 982.814 618.894Q982.982 618.993 983.155 619.083Q983.328 619.173 983.506 619.255Q983.684 619.337 983.867 619.41Q984.049 619.483 984.236 619.547Q984.423 619.611 984.613 619.666Q984.804 619.722 984.998 619.768Q985.192 619.814 985.388 619.851Q985.586 619.888 985.785 619.916Q985.985 619.944 986.186 619.963Q986.388 619.981 986.592 619.991Q986.795 620 987 620L1171 620Q1171.2 620 1171.41 619.991Q1171.61 619.981 1171.81 619.963Q1172.02 619.944 1172.22 619.916Q1172.41 619.888 1172.61 619.851Q1172.81 619.814 1173 619.768Q1173.2 619.722 1173.39 619.666Q1173.58 619.611 1173.76 619.547Q1173.95 619.483 1174.13 619.41Q1174.32 619.337 1174.49 619.255Q1174.67 619.173 1174.85 619.083Q1175.02 618.993 1175.19 618.894Q1175.35 618.796 1175.52 618.689Q1175.68 618.583 1175.83 618.468Q1175.99 618.354 1176.14 618.232Q1176.29 618.11 1176.43 617.98Q1176.58 617.851 1176.71 617.714Q1176.85 617.578 1176.98 617.434Q1177.11 617.291 1177.23 617.141Q1177.35 616.991 1177.47 616.835Q1177.58 616.678 1177.69 616.516Q1177.8 616.354 1177.89 616.186Q1177.99 616.018 1178.08 615.845Q1178.17 615.672 1178.26 615.494Q1178.34 615.316 1178.41 615.133Q1178.48 614.951 1178.55 614.764Q1178.61 614.577 1178.67 614.387Q1178.72 614.196 1178.77 614.002Q1178.81 613.809 1178.85 613.612Q1178.89 613.415 1178.92 613.215Q1178.94 613.016 1178.96 612.814Q1178.98 612.612 1178.99 612.409Q1179 612.205 1179 612L1179 428Q1179 427.795 1178.99 427.592Q1178.98 427.388 1178.96 427.186Q1178.94 426.985 1178.92 426.785Q1178.89 426.586 1178.85 426.389Q1178.81 426.192 1178.77 425.998Q1178.72 425.804 1178.67 425.613Q1178.61 425.423 1178.55 425.236Q1178.48 425.049 1178.41 424.867Q1178.34 424.684 1178.25 424.506Q1178.17 424.328 1178.08 424.155Q1177.99 423.982 1177.89 423.814Q1177.8 423.646 1177.69 423.484Q1177.58 423.322 1177.47 423.166Q1177.35 423.009 1177.23 422.859Q1177.11 422.709 1176.98 422.566Q1176.85 422.422 1176.71 422.286Q1176.58 422.149 1176.43 422.02Q1176.29 421.89 1176.14 421.768Q1175.99 421.646 1175.83 421.532Q1175.68 421.417 1175.52 421.311Q1175.35 421.204 1175.19 421.106Q1175.02 421.007 1174.85 420.917Q1174.67 420.827 1174.49 420.745Q1174.32 420.664 1174.13 420.591Q1173.95 420.518 1173.76 420.453Q1173.58 420.389 1173.39 420.334Q1173.2 420.279 1173 420.232Q1172.81 420.186 1172.61 420.149Q1172.41 420.112 1172.22 420.084Q1172.02 420.056 1171.81 420.037Q1171.61 420.019 1171.41 420.009Q1171.2 420 1171 420Z" clip-rule="evenodd"/>
		</clipPath>
	</defs>
	<g clip-path="url(#clip_0)">
		<path fill="none" stroke="rgb(0,0,0)" stroke-width="8" stroke-miterlimit="4" transform="translate(979 420)" d="M8 0L192 0Q192.205 0 192.408 0.009326Q192.612 0.018652 192.814 0.037285Q193.015 0.055918 193.215 0.0838199Q193.415 0.111722 193.612 0.148836Q193.808 0.18595 194.002 0.2322Q194.196 0.27845 194.387 0.333743Q194.577 0.389035 194.764 0.453256Q194.951 0.517478 195.133 0.590497Q195.316 0.663517 195.494 0.745186Q195.672 0.826855 195.845 0.917006Q196.018 1.00716 196.186 1.10561Q196.354 1.20406 196.516 1.31061Q196.678 1.41715 196.834 1.53158Q196.991 1.64601 197.141 1.76809Q197.291 1.89016 197.434 2.01963Q197.578 2.14911 197.714 2.28571Q197.851 2.42232 197.98 2.56578Q198.11 2.70925 198.232 2.85927Q198.354 3.0093 198.468 3.16558Q198.583 3.32186 198.689 3.48408Q198.796 3.6463 198.894 3.81412Q198.993 3.98195 199.083 4.15504Q199.173 4.32813 199.255 4.50613Q199.337 4.68413 199.41 4.86668Q199.483 5.04923 199.547 5.23595Q199.611 5.42268 199.666 5.61319Q199.722 5.80371 199.768 5.99764Q199.814 6.19157 199.851 6.3885Q199.888 6.58544 199.916 6.78498Q199.944 6.98453 199.963 7.18627Q199.981 7.38802 199.991 7.59155Q200 7.79509 200 8L200 192Q200 192.205 199.991 192.408Q199.981 192.612 199.963 192.814Q199.944 193.015 199.916 193.215Q199.888 193.415 199.851 193.612Q199.814 193.808 199.768 194.002Q199.722 194.196 199.666 194.387Q199.611 194.577 199.547 194.764Q199.483 194.951 199.41 195.133Q199.337 195.316 199.255 195.494Q199.173 195.672 199.083 195.845Q198.993 196.018 198.894 196.186Q198.796 196.354 198.689 196.516Q198.583 196.678 198.468 196.834Q198.354 196.991 198.232 197.141Q198.11 197.291 197.98 197.434Q197.851 197.578 197.714 197.714Q197.578 197.851 197.434 197.98Q197.291 198.11 197.141 198.232Q196.991 198.354 196.834 198.468Q196.678 198.583 196.516 198.689Q196.354 198.796 196.186 198.894Q196.018 198.993 195.845 199.083Q195.672 199.173 195.494 199.255Q195.316 199.336 195.133 199.41Q194.951 199.483 194.764 199.547Q194.577 199.611 194.387 199.666Q194.196 199.722 194.002 199.768Q193.808 199.814 193.612 199.851Q193.415 199.888 193.215 199.916Q193.015 199.944 192.814 199.963Q192.612 199.981 192.408 199.991Q192.205 200 192 200L8 200Q7.79509 200 7.59155 199.991Q7.38802 199.981 7.18627 199.963Q6.98453 199.944 6.78498 199.916Q6.58544 199.888 6.3885 199.851Q6.19157 199.814 5.99764 199.768Q5.80371 199.722 5.6132 199.666Q5.42268 199.611 5.23595 199.547Q5.04923 199.483 4.86668 199.41Q4.68413 199.337 4.50613 199.255Q4.32813 199.173 4.15504 199.083Q3.98195 198.993 3.81412 198.894Q3.6463 198.796 3.48408 198.689Q3.32186 198.583 3.16558 198.468Q3.0093 198.354 2.85927 198.232Q2.70925 198.11 2.56578 197.98Q2.42232 197.851 2.28571 197.714Q2.14911 197.578 2.01963 197.434Q1.89016 197.291 1.76809 197.141Q1.64601 196.991 1.53158 196.834Q1.41715 196.678 1.31061 196.516Q1.20406 196.354 1.10561 196.186Q1.00716 196.018 0.917006 195.845Q0.826855 195.672 0.745186 195.494Q0.663517 195.316 0.590497 195.133Q0.517478 194.951 0.453256 194.764Q0.389035 194.577 0.333743 194.387Q0.27845 194.196 0.2322 194.002Q0.18595 193.808 0.148836 193.612Q0.111722 193.415 0.0838199 193.215Q0.055918 193.015 0.037285 192.814Q0.018652 192.612 0.009326 192.408Q0 192.205 0 192L0 8Q0 7.79509 0.009326 7.59155Q0.018652 7.38802 0.037285 7.18627Q0.055918 6.98453 0.0838199 6.78498Q0.111722 6.58544 0.148836 6.3885Q0.18595 6.19157 0.2322 5.99764Q0.27845 5.80371 0.333743 5.6132Q0.389035 5.42268 0.453256 5.23595Q0.517478 5.04923 0.590497 4.86668Q0.663517 4.68413 0.745186 4.50613Q0.826855 4.32813 0.917006 4.15504Q1.00716 3.98195 1.10561 3.81412Q1.20406 3.6463 1.31061 3.48408Q1.41715 3.32186 1.53158 3.16558Q1.64601 3.0093 1.76809 2.85927Q1.89016 2.70925 2.01963 2.56578Q2.14911 2.42232 2.28571 2.28571Q2.42232 2.14911 2.56578 2.01963Q2.70925 1.89016 2.85927 1.76809Q3.0093 1.64601 3.16558 1.53158Q3.32186 1.41715 3.48408 1.31061Q3.6463 1.20406 3.81412 1.10561Q3.98195 1.00716 4.15504 0.917006Q4.32813 0.826855 4.50613 0.745186Q4.68413 0.663517 4.86668 0.590497Q5.04923 0.517478 5.23595 0.453256Q5.42268 0.389035 5.61319 0.333743Q5.80371 0.27845 5.99764 0.2322Q6.19157 0.18595 6.3885 0.148836Q6.58544 0.111722 6.78498 0.0838199Q6.98453 0.055918 7.18627 0.037285Q7.38802 0.018652 7.59155 0.009326Q7.79509 0 8 0Z"/>
	</g>
	<text fill="rgb(0,0,0)" stroke="none" transform="translate(656 473)" font-size="80" font-family="Fira Mono" x="0" y="75.559998">
			5
	</text>
	<text fill="rgb(0,0,0)" stroke="none" transform="translate(1055 472)" font-size="80" font-family="Fira Mono" x="0" y="75.559998">
			5
	</text>
	<defs>
		<clipPath id="clip_1">
			<path d="M772 420L588 420Q587.795 420 587.592 420.009Q587.388 420.019 587.186 420.037Q586.984 420.056 586.785 420.084Q586.585 420.112 586.389 420.149Q586.192 420.186 585.998 420.232Q585.804 420.279 585.613 420.334Q585.423 420.389 585.236 420.453Q585.049 420.518 584.867 420.591Q584.684 420.664 584.506 420.745Q584.328 420.827 584.155 420.917Q583.982 421.007 583.814 421.106Q583.646 421.204 583.484 421.311Q583.322 421.417 583.166 421.532Q583.009 421.646 582.859 421.768Q582.709 421.89 582.566 422.02Q582.422 422.149 582.286 422.286Q582.149 422.422 582.02 422.566Q581.89 422.709 581.768 422.859Q581.646 423.009 581.532 423.166Q581.417 423.322 581.311 423.484Q581.204 423.646 581.106 423.814Q581.007 423.982 580.917 424.155Q580.827 424.328 580.745 424.506Q580.664 424.684 580.591 424.867Q580.518 425.049 580.453 425.236Q580.389 425.423 580.334 425.613Q580.279 425.804 580.232 425.998Q580.186 426.192 580.149 426.389Q580.112 426.586 580.084 426.785Q580.056 426.985 580.037 427.186Q580.019 427.388 580.009 427.592Q580 427.795 580 428L580 612Q580 612.205 580.009 612.409Q580.019 612.612 580.037 612.814Q580.056 613.016 580.084 613.215Q580.112 613.415 580.149 613.612Q580.186 613.809 580.232 614.002Q580.279 614.196 580.334 614.387Q580.389 614.577 580.453 614.764Q580.518 614.951 580.591 615.133Q580.664 615.316 580.745 615.494Q580.827 615.672 580.917 615.845Q581.007 616.018 581.106 616.186Q581.204 616.354 581.311 616.516Q581.417 616.678 581.532 616.835Q581.646 616.991 581.768 617.141Q581.89 617.291 582.02 617.434Q582.149 617.578 582.286 617.714Q582.422 617.851 582.566 617.98Q582.709 618.11 582.859 618.232Q583.009 618.354 583.166 618.468Q583.322 618.583 583.484 618.689Q583.646 618.796 583.814 618.894Q583.982 618.993 584.155 619.083Q584.328 619.173 584.506 619.255Q584.684 619.337 584.867 619.41Q585.049 619.483 585.236 619.547Q585.423 619.611 585.613 619.666Q585.804 619.722 585.998 619.768Q586.192 619.814 586.389 619.851Q586.585 619.888 586.785 619.916Q586.984 619.944 587.186 619.963Q587.388 619.981 587.592 619.991Q587.795 620 588 620L772 620Q772.205 620 772.409 619.991Q772.612 619.981 772.814 619.963Q773.016 619.944 773.215 619.916Q773.414 619.888 773.611 619.851Q773.808 619.814 774.002 619.768Q774.196 619.722 774.387 619.666Q774.577 619.611 774.764 619.547Q774.951 619.483 775.133 619.41Q775.316 619.337 775.494 619.255Q775.672 619.173 775.845 619.083Q776.018 618.993 776.186 618.894Q776.354 618.796 776.516 618.689Q776.678 618.583 776.835 618.468Q776.991 618.354 777.141 618.232Q777.291 618.11 777.434 617.98Q777.578 617.851 777.714 617.714Q777.851 617.578 777.98 617.434Q778.11 617.291 778.232 617.141Q778.354 616.991 778.469 616.835Q778.583 616.678 778.69 616.516Q778.796 616.354 778.895 616.186Q778.993 616.018 779.083 615.845Q779.173 615.672 779.255 615.494Q779.337 615.316 779.41 615.133Q779.483 614.951 779.547 614.764Q779.611 614.577 779.666 614.387Q779.722 614.196 779.768 614.002Q779.814 613.809 779.851 613.612Q779.888 613.415 779.916 613.215Q779.944 613.016 779.963 612.814Q779.981 612.612 779.991 612.409Q780 612.205 780 612L780 428Q780 427.795 779.991 427.592Q779.981 427.388 779.963 427.186Q779.944 426.985 779.916 426.785Q779.888 426.586 779.851 426.389Q779.814 426.192 779.768 425.998Q779.722 425.804 779.666 425.613Q779.611 425.423 779.547 425.236Q779.483 425.049 779.41 424.867Q779.337 424.684 779.255 424.506Q779.173 424.328 779.083 424.155Q778.993 423.982 778.895 423.814Q778.796 423.646 778.69 423.484Q778.583 423.322 778.469 423.166Q778.354 423.009 778.232 422.859Q778.11 422.709 777.981 422.566Q777.851 422.422 777.714 422.286Q777.578 422.149 777.434 422.02Q777.291 421.89 777.141 421.768Q776.991 421.646 776.834 421.532Q776.678 421.417 776.516 421.311Q776.354 421.204 776.186 421.106Q776.018 421.007 775.845 420.917Q775.672 420.827 775.494 420.745Q775.316 420.664 775.133 420.591Q774.951 420.518 774.764 420.453Q774.577 420.389 774.387 420.334Q774.196 420.279 774.002 420.232Q773.809 420.186 773.612 420.149Q773.415 420.112 773.215 420.084Q773.016 420.056 772.814 420.037Q772.612 420.019 772.409 420.009Q772.205 420 772 420Z" clip-rule="evenodd"/>
		</clipPath>
	</defs>
	<g clip-path="url(#clip_1)">
		<path fill="none" stroke="rgb(0,0,0)" stroke-width="8" stroke-miterlimit="4" transform="translate(580 420)" d="M8 0L192 0Q192.205 0 192.408 0.009326Q192.612 0.018652 192.814 0.037285Q193.015 0.055918 193.215 0.0838199Q193.415 0.111722 193.612 0.148836Q193.808 0.18595 194.002 0.2322Q194.196 0.27845 194.387 0.333743Q194.577 0.389035 194.764 0.453256Q194.951 0.517478 195.133 0.590497Q195.316 0.663517 195.494 0.745186Q195.672 0.826855 195.845 0.917006Q196.018 1.00716 196.186 1.10561Q196.354 1.20406 196.516 1.31061Q196.678 1.41715 196.834 1.53158Q196.991 1.64601 197.141 1.76809Q197.291 1.89016 197.434 2.01963Q197.578 2.14911 197.714 2.28571Q197.851 2.42232 197.98 2.56578Q198.11 2.70925 198.232 2.85927Q198.354 3.0093 198.468 3.16558Q198.583 3.32186 198.689 3.48408Q198.796 3.6463 198.894 3.81412Q198.993 3.98195 199.083 4.15504Q199.173 4.32813 199.255 4.50613Q199.337 4.68413 199.41 4.86668Q199.483 5.04923 199.547 5.23595Q199.611 5.42268 199.666 5.61319Q199.722 5.80371 199.768 5.99764Q199.814 6.19157 199.851 6.3885Q199.888 6.58544 199.916 6.78498Q199.944 6.98453 199.963 7.18627Q199.981 7.38802 199.991 7.59155Q200 7.79509 200 8L200 192Q200 192.205 199.991 192.408Q199.981 192.612 199.963 192.814Q199.944 193.015 199.916 193.215Q199.888 193.415 199.851 193.612Q199.814 193.808 199.768 194.002Q199.722 194.196 199.666 194.387Q199.611 194.577 199.547 194.764Q199.483 194.951 199.41 195.133Q199.337 195.316 199.255 195.494Q199.173 195.672 199.083 195.845Q198.993 196.018 198.894 196.186Q198.796 196.354 198.689 196.516Q198.583 196.678 198.468 196.834Q198.354 196.991 198.232 197.141Q198.11 197.291 197.98 197.434Q197.851 197.578 197.714 197.714Q197.578 197.851 197.434 197.98Q197.291 198.11 197.141 198.232Q196.991 198.354 196.834 198.468Q196.678 198.583 196.516 198.689Q196.354 198.796 196.186 198.894Q196.018 198.993 195.845 199.083Q195.672 199.173 195.494 199.255Q195.316 199.336 195.133 199.41Q194.951 199.483 194.764 199.547Q194.577 199.611 194.387 199.666Q194.196 199.722 194.002 199.768Q193.808 199.814 193.612 199.851Q193.415 199.888 193.215 199.916Q193.015 199.944 192.814 199.963Q192.612 199.981 192.408 199.991Q192.205 200 192 200L8 200Q7.79509 200 7.59155 199.991Q7.38802 199.981 7.18627 199.963Q6.98453 199.944 6.78498 199.916Q6.58544 199.888 6.3885 199.851Q6.19157 199.814 5.99764 199.768Q5.80371 199.722 5.6132 199.666Q5.42268 199.611 5.23595 199.547Q5.04923 199.483 4.86668 199.41Q4.68413 199.337 4.50613 199.255Q4.32813 199.173 4.15504 199.083Q3.98195 198.993 3.81412 198.894Q3.6463 198.796 3.48408 198.689Q3.32186 198.583 3.16558 198.468Q3.0093 198.354 2.85927 198.232Q2.70925 198.11 2.56578 197.98Q2.42232 197.851 2.28571 197.714Q2.14911 197.578 2.01963 197.434Q1.89016 197.291 1.76809 197.141Q1.64601 196.991 1.53158 196.834Q1.41715 196.678 1.31061 196.516Q1.20406 196.354 1.10561 196.186Q1.00716 196.018 0.917006 195.845Q0.826855 195.672 0.745186 195.494Q0.663517 195.316 0.590497 195.133Q0.517478 194.951 0.453256 194.764Q0.389035 194.577 0.333743 194.387Q0.27845 194.196 0.2322 194.002Q0.18595 193.808 0.148836 193.612Q0.111722 193.415 0.0838199 193.215Q0.055918 193.015 0.037285 192.814Q0.018652 192.612 0.009326 192.408Q0 192.205 0 192L0 8Q0 7.79509 0.009326 7.59155Q0.018652 7.38802 0.037285 7.18627Q0.055918 6.98453 0.0838199 6.78498Q0.111722 6.58544 0.148836 6.3885Q0.18595 6.19157 0.2322 5.99764Q0.27845 5.80371 0.333743 5.6132Q0.389035 5.42268 0.453256 5.23595Q0.517478 5.04923 0.590497 4.86668Q0.663517 4.68413 0.745186 4.50613Q0.826855 4.32813 0.917006 4.15504Q1.00716 3.98195 1.10561 3.81412Q1.20406 3.6463 1.31061 3.48408Q1.41715 3.32186 1.53158 3.16558Q1.64601 3.0093 1.76809 2.85927Q1.89016 2.70925 2.01963 2.56578Q2.14911 2.42232 2.28571 2.28571Q2.42232 2.14911 2.56578 2.01963Q2.70925 1.89016 2.85927 1.76809Q3.0093 1.64601 3.16558 1.53158Q3.32186 1.41715 3.48408 1.31061Q3.6463 1.20406 3.81412 1.10561Q3.98195 1.00716 4.15504 0.917006Q4.32813 0.826855 4.50613 0.745186Q4.68413 0.663517 4.86668 0.590497Q5.04923 0.517478 5.23595 0.453256Q5.42268 0.389035 5.61319 0.333743Q5.80371 0.27845 5.99764 0.2322Q6.19157 0.18595 6.3885 0.148836Q6.58544 0.111722 6.78498 0.0838199Q6.98453 0.055918 7.18627 0.037285Q7.38802 0.018652 7.59155 0.009326Q7.79509 0 8 0Z"/>
	</g>
	<path fill="rgb(245,165,35)" stroke="none" transform="matrix(0.707107 0.707107 -0.707107 0.707107 837.569 270)" d="M0 20.2909L175.291 20L175.291 0L215.291 39.4978L175.291 80L175.291 60L0 60.2909L0 20.2909Z"/>
	<path fill="rgb(245,165,35)" stroke="none" transform="matrix(-0.707107 0.707107 -0.707107 -0.707107 982.802 326.569)" d="M0 20.2909L175.291 20L175.291 0L215.291 39.4978L175.291 80L175.291 60L0 60.2909L0 20.2909Z"/>
	<defs>
		<clipPath id="clip_2">
			<path d="M1171 120L987 120Q986.795 120 986.592 120.009Q986.388 120.019 986.186 120.037Q985.985 120.056 985.785 120.084Q985.586 120.112 985.388 120.149Q985.192 120.186 984.998 120.232Q984.804 120.278 984.613 120.334Q984.423 120.389 984.236 120.453Q984.049 120.517 983.867 120.59Q983.684 120.664 983.506 120.745Q983.328 120.827 983.155 120.917Q982.982 121.007 982.814 121.106Q982.646 121.204 982.484 121.311Q982.322 121.417 982.166 121.532Q982.009 121.646 981.859 121.768Q981.709 121.89 981.566 122.02Q981.422 122.149 981.286 122.286Q981.149 122.422 981.02 122.566Q980.89 122.709 980.768 122.859Q980.646 123.009 980.532 123.166Q980.417 123.322 980.311 123.484Q980.204 123.646 980.106 123.814Q980.007 123.982 979.917 124.155Q979.827 124.328 979.745 124.506Q979.664 124.684 979.591 124.867Q979.518 125.049 979.453 125.236Q979.389 125.423 979.334 125.613Q979.279 125.804 979.232 125.998Q979.186 126.192 979.149 126.389Q979.112 126.585 979.084 126.785Q979.056 126.985 979.037 127.186Q979.019 127.388 979.009 127.592Q979 127.795 979 128L979 312Q979 312.205 979.009 312.408Q979.019 312.612 979.037 312.814Q979.056 313.015 979.084 313.215Q979.112 313.415 979.149 313.611Q979.186 313.808 979.232 314.002Q979.279 314.196 979.334 314.387Q979.389 314.577 979.453 314.764Q979.518 314.951 979.591 315.133Q979.664 315.316 979.745 315.494Q979.827 315.672 979.917 315.845Q980.007 316.018 980.106 316.186Q980.204 316.354 980.311 316.516Q980.417 316.678 980.532 316.834Q980.646 316.991 980.768 317.141Q980.89 317.291 981.02 317.434Q981.149 317.578 981.286 317.714Q981.422 317.851 981.566 317.98Q981.709 318.11 981.859 318.232Q982.009 318.354 982.166 318.468Q982.322 318.583 982.484 318.689Q982.646 318.796 982.814 318.894Q982.982 318.993 983.155 319.083Q983.328 319.173 983.506 319.255Q983.684 319.337 983.867 319.41Q984.049 319.483 984.236 319.547Q984.423 319.611 984.613 319.666Q984.804 319.722 984.998 319.768Q985.192 319.814 985.388 319.851Q985.586 319.888 985.785 319.916Q985.985 319.944 986.186 319.963Q986.388 319.981 986.592 319.991Q986.795 320 987 320L1171 320Q1171.2 320 1171.41 319.991Q1171.61 319.981 1171.81 319.963Q1172.02 319.944 1172.22 319.916Q1172.41 319.888 1172.61 319.851Q1172.81 319.814 1173 319.768Q1173.2 319.722 1173.39 319.666Q1173.58 319.611 1173.76 319.547Q1173.95 319.483 1174.13 319.41Q1174.32 319.337 1174.49 319.255Q1174.67 319.173 1174.85 319.083Q1175.02 318.993 1175.19 318.894Q1175.35 318.796 1175.52 318.689Q1175.68 318.583 1175.83 318.468Q1175.99 318.354 1176.14 318.232Q1176.29 318.11 1176.43 317.98Q1176.58 317.851 1176.71 317.714Q1176.85 317.578 1176.98 317.434Q1177.11 317.291 1177.23 317.141Q1177.35 316.991 1177.47 316.835Q1177.58 316.678 1177.69 316.516Q1177.8 316.354 1177.89 316.186Q1177.99 316.018 1178.08 315.845Q1178.17 315.672 1178.26 315.494Q1178.34 315.316 1178.41 315.133Q1178.48 314.951 1178.55 314.764Q1178.61 314.577 1178.67 314.387Q1178.72 314.196 1178.77 314.002Q1178.81 313.808 1178.85 313.611Q1178.89 313.415 1178.92 313.215Q1178.94 313.015 1178.96 312.814Q1178.98 312.612 1178.99 312.408Q1179 312.205 1179 312L1179 128Q1179 127.795 1178.99 127.592Q1178.98 127.388 1178.96 127.186Q1178.94 126.985 1178.92 126.785Q1178.89 126.585 1178.85 126.389Q1178.81 126.192 1178.77 125.998Q1178.72 125.804 1178.67 125.613Q1178.61 125.423 1178.55 125.236Q1178.48 125.049 1178.41 124.867Q1178.34 124.684 1178.25 124.506Q1178.17 124.328 1178.08 124.155Q1177.99 123.982 1177.89 123.814Q1177.8 123.646 1177.69 123.484Q1177.58 123.322 1177.47 123.166Q1177.35 123.009 1177.23 122.859Q1177.11 122.709 1176.98 122.566Q1176.85 122.422 1176.71 122.286Q1176.58 122.149 1176.43 122.02Q1176.29 121.89 1176.14 121.768Q1175.99 121.646 1175.83 121.532Q1175.68 121.417 1175.52 121.311Q1175.35 121.204 1175.19 121.106Q1175.02 121.007 1174.85 120.917Q1174.67 120.827 1174.49 120.745Q1174.32 120.664 1174.13 120.591Q1173.95 120.517 1173.76 120.453Q1173.58 120.389 1173.39 120.334Q1173.2 120.278 1173 120.232Q1172.81 120.186 1172.61 120.149Q1172.41 120.112 1172.22 120.084Q1172.02 120.056 1171.81 120.037Q1171.61 120.019 1171.41 120.009Q1171.2 120 1171 120Z" clip-rule="evenodd"/>
		</clipPath>
	</defs>
	<g clip-path="url(#clip_2)">
		<path fill="none" stroke="rgb(0,0,0)" stroke-width="8" stroke-miterlimit="4" transform="translate(979 120)" d="M8 0L192 0Q192.205 0 192.408 0.009326Q192.612 0.018652 192.814 0.037285Q193.015 0.055918 193.215 0.0838199Q193.415 0.111722 193.612 0.148836Q193.808 0.18595 194.002 0.2322Q194.196 0.27845 194.387 0.333743Q194.577 0.389035 194.764 0.453256Q194.951 0.517478 195.133 0.590497Q195.316 0.663517 195.494 0.745186Q195.672 0.826855 195.845 0.917006Q196.018 1.00716 196.186 1.10561Q196.354 1.20406 196.516 1.31061Q196.678 1.41715 196.834 1.53158Q196.991 1.64601 197.141 1.76809Q197.291 1.89016 197.434 2.01963Q197.578 2.14911 197.714 2.28571Q197.851 2.42232 197.98 2.56578Q198.11 2.70925 198.232 2.85927Q198.354 3.0093 198.468 3.16558Q198.583 3.32186 198.689 3.48408Q198.796 3.6463 198.894 3.81412Q198.993 3.98195 199.083 4.15504Q199.173 4.32813 199.255 4.50613Q199.337 4.68413 199.41 4.86668Q199.483 5.04923 199.547 5.23595Q199.611 5.42268 199.666 5.61319Q199.722 5.80371 199.768 5.99764Q199.814 6.19157 199.851 6.3885Q199.888 6.58544 199.916 6.78498Q199.944 6.98453 199.963 7.18627Q199.981 7.38802 199.991 7.59155Q200 7.79509 200 8L200 192Q200 192.205 199.991 192.408Q199.981 192.612 199.963 192.814Q199.944 193.015 199.916 193.215Q199.888 193.415 199.851 193.612Q199.814 193.808 199.768 194.002Q199.722 194.196 199.666 194.387Q199.611 194.577 199.547 194.764Q199.483 194.951 199.41 195.133Q199.337 195.316 199.255 195.494Q199.173 195.672 199.083 195.845Q198.993 196.018 198.894 196.186Q198.796 196.354 198.689 196.516Q198.583 196.678 198.468 196.834Q198.354 196.991 198.232 197.141Q198.11 197.291 197.98 197.434Q197.851 197.578 197.714 197.714Q197.578 197.851 197.434 197.98Q197.291 198.11 197.141 198.232Q196.991 198.354 196.834 198.468Q196.678 198.583 196.516 198.689Q196.354 198.796 196.186 198.894Q196.018 198.993 195.845 199.083Q195.672 199.173 195.494 199.255Q195.316 199.336 195.133 199.41Q194.951 199.483 194.764 199.547Q194.577 199.611 194.387 199.666Q194.196 199.722 194.002 199.768Q193.808 199.814 193.612 199.851Q193.415 199.888 193.215 199.916Q193.015 199.944 192.814 199.963Q192.612 199.981 192.408 199.991Q192.205 200 192 200L8 200Q7.79509 200 7.59155 199.991Q7.38802 199.981 7.18627 199.963Q6.98453 199.944 6.78498 199.916Q6.58544 199.888 6.3885 199.851Q6.19157 199.814 5.99764 199.768Q5.80371 199.722 5.6132 199.666Q5.42268 199.611 5.23595 199.547Q5.04923 199.483 4.86668 199.41Q4.68413 199.337 4.50613 199.255Q4.32813 199.173 4.15504 199.083Q3.98195 198.993 3.81412 198.894Q3.6463 198.796 3.48408 198.689Q3.32186 198.583 3.16558 198.468Q3.0093 198.354 2.85927 198.232Q2.70925 198.11 2.56578 197.98Q2.42232 197.851 2.28571 197.714Q2.14911 197.578 2.01963 197.434Q1.89016 197.291 1.76809 197.141Q1.64601 196.991 1.53158 196.834Q1.41715 196.678 1.31061 196.516Q1.20406 196.354 1.10561 196.186Q1.00716 196.018 0.917006 195.845Q0.826855 195.672 0.745186 195.494Q0.663517 195.316 0.590497 195.133Q0.517478 194.951 0.453256 194.764Q0.389035 194.577 0.333743 194.387Q0.27845 194.196 0.2322 194.002Q0.18595 193.808 0.148836 193.612Q0.111722 193.415 0.0838199 193.215Q0.055918 193.015 0.037285 192.814Q0.018652 192.612 0.009326 192.408Q0 192.205 0 192L0 8Q0 7.79509 0.009326 7.59155Q0.018652 7.38802 0.037285 7.18627Q0.055918 6.98453 0.0838199 6.78498Q0.111722 6.58544 0.148836 6.3885Q0.18595 6.19157 0.2322 5.99764Q0.27845 5.80371 0.333743 5.6132Q0.389035 5.42268 0.453256 5.23595Q0.517478 5.04923 0.590497 4.86668Q0.663517 4.68413 0.745186 4.50613Q0.826855 4.32813 0.917006 4.15504Q1.00716 3.98195 1.10561 3.81412Q1.20406 3.6463 1.31061 3.48408Q1.41715 3.32186 1.53158 3.16558Q1.64601 3.0093 1.76809 2.85927Q1.89016 2.70925 2.01963 2.56578Q2.14911 2.42232 2.28571 2.28571Q2.42232 2.14911 2.56578 2.01963Q2.70925 1.89016 2.85927 1.76809Q3.0093 1.64601 3.16558 1.53158Q3.32186 1.41715 3.48408 1.31061Q3.6463 1.20406 3.81412 1.10561Q3.98195 1.00716 4.15504 0.917006Q4.32813 0.826855 4.50613 0.745186Q4.68413 0.663517 4.86668 0.590497Q5.04923 0.517478 5.23595 0.453256Q5.42268 0.389035 5.61319 0.333743Q5.80371 0.27845 5.99764 0.2322Q6.19157 0.18595 6.3885 0.148836Q6.58544 0.111722 6.78498 0.0838199Q6.98453 0.055918 7.18627 0.037285Q7.38802 0.018652 7.59155 0.009326Q7.79509 0 8 0Z"/>
	</g>
	<text fill="rgb(0,0,0)" stroke="none" transform="translate(656 172)" font-size="80" font-family="Fira Mono" x="0" y="75.559998">
			3
	</text>
	<text fill="rgb(0,0,0)" stroke="none" transform="translate(1055 172)" font-size="80" font-family="Fira Mono" x="0" y="75.559998">
			2
	</text>
	<defs>
		<clipPath id="clip_3">
			<path d="M772 120L588 120Q587.795 120 587.592 120.009Q587.388 120.019 587.186 120.037Q586.984 120.056 586.785 120.084Q586.585 120.112 586.389 120.149Q586.192 120.186 585.998 120.232Q585.804 120.278 585.613 120.334Q585.423 120.389 585.236 120.453Q585.049 120.517 584.867 120.59Q584.684 120.664 584.506 120.745Q584.328 120.827 584.155 120.917Q583.982 121.007 583.814 121.106Q583.646 121.204 583.484 121.311Q583.322 121.417 583.166 121.532Q583.009 121.646 582.859 121.768Q582.709 121.89 582.566 122.02Q582.422 122.149 582.286 122.286Q582.149 122.422 582.02 122.566Q581.89 122.709 581.768 122.859Q581.646 123.009 581.532 123.166Q581.417 123.322 581.311 123.484Q581.204 123.646 581.106 123.814Q581.007 123.982 580.917 124.155Q580.827 124.328 580.745 124.506Q580.664 124.684 580.591 124.867Q580.518 125.049 580.453 125.236Q580.389 125.423 580.334 125.613Q580.279 125.804 580.232 125.998Q580.186 126.192 580.149 126.389Q580.112 126.585 580.084 126.785Q580.056 126.985 580.037 127.186Q580.019 127.388 580.009 127.592Q580 127.795 580 128L580 312Q580 312.205 580.009 312.408Q580.019 312.612 580.037 312.814Q580.056 313.015 580.084 313.215Q580.112 313.415 580.149 313.611Q580.186 313.808 580.232 314.002Q580.279 314.196 580.334 314.387Q580.389 314.577 580.453 314.764Q580.518 314.951 580.591 315.133Q580.664 315.316 580.745 315.494Q580.827 315.672 580.917 315.845Q581.007 316.018 581.106 316.186Q581.204 316.354 581.311 316.516Q581.417 316.678 581.532 316.834Q581.646 316.991 581.768 317.141Q581.89 317.291 582.02 317.434Q582.149 317.578 582.286 317.714Q582.422 317.851 582.566 317.98Q582.709 318.11 582.859 318.232Q583.009 318.354 583.166 318.468Q583.322 318.583 583.484 318.689Q583.646 318.796 583.814 318.894Q583.982 318.993 584.155 319.083Q584.328 319.173 584.506 319.255Q584.684 319.337 584.867 319.41Q585.049 319.483 585.236 319.547Q585.423 319.611 585.613 319.666Q585.804 319.722 585.998 319.768Q586.192 319.814 586.389 319.851Q586.585 319.888 586.785 319.916Q586.984 319.944 587.186 319.963Q587.388 319.981 587.592 319.991Q587.795 320 588 320L772 320Q772.205 320 772.409 319.991Q772.612 319.981 772.814 319.963Q773.016 319.944 773.215 319.916Q773.414 319.888 773.611 319.851Q773.808 319.814 774.002 319.768Q774.196 319.722 774.387 319.666Q774.577 319.611 774.764 319.547Q774.951 319.483 775.133 319.41Q775.316 319.337 775.494 319.255Q775.672 319.173 775.845 319.083Q776.018 318.993 776.186 318.894Q776.354 318.796 776.516 318.689Q776.678 318.583 776.835 318.468Q776.991 318.354 777.141 318.232Q777.291 318.11 777.434 317.98Q777.578 317.851 777.714 317.714Q777.851 317.578 777.98 317.434Q778.11 317.291 778.232 317.141Q778.354 316.991 778.469 316.835Q778.583 316.678 778.69 316.516Q778.796 316.354 778.895 316.186Q778.993 316.018 779.083 315.845Q779.173 315.672 779.255 315.494Q779.337 315.316 779.41 315.133Q779.483 314.951 779.547 314.764Q779.611 314.577 779.666 314.387Q779.722 314.196 779.768 314.002Q779.814 313.808 779.851 313.611Q779.888 313.415 779.916 313.215Q779.944 313.015 779.963 312.814Q779.981 312.612 779.991 312.408Q780 312.205 780 312L780 128Q780 127.795 779.991 127.592Q779.981 127.388 779.963 127.186Q779.944 126.985 779.916 126.785Q779.888 126.585 779.851 126.389Q779.814 126.192 779.768 125.998Q779.722 125.804 779.666 125.613Q779.611 125.423 779.547 125.236Q779.483 125.049 779.41 124.867Q779.337 124.684 779.255 124.506Q779.173 124.328 779.083 124.155Q778.993 123.982 778.895 123.814Q778.796 123.646 778.69 123.484Q778.583 123.322 778.469 123.166Q778.354 123.009 778.232 122.859Q778.11 122.709 777.981 122.566Q777.851 122.422 777.714 122.286Q777.578 122.149 777.434 122.02Q777.291 121.89 777.141 121.768Q776.991 121.646 776.834 121.532Q776.678 121.417 776.516 121.311Q776.354 121.204 776.186 121.106Q776.018 121.007 775.845 120.917Q775.672 120.827 775.494 120.745Q775.316 120.664 775.133 120.591Q774.951 120.517 774.764 120.453Q774.577 120.389 774.387 120.334Q774.196 120.278 774.002 120.232Q773.809 120.186 773.612 120.149Q773.415 120.112 773.215 120.084Q773.016 120.056 772.814 120.037Q772.612 120.019 772.409 120.009Q772.205 120 772 120Z" clip-rule="evenodd"/>
		</clipPath>
	</defs>
	<g clip-path="url(#clip_3)">
		<path fill="none" stroke="rgb(0,0,0)" stroke-width="8" stroke-miterlimit="4" transform="translate(580 120)" d="M8 0L192 0Q192.205 0 192.408 0.009326Q192.612 0.018652 192.814 0.037285Q193.015 0.055918 193.215 0.0838199Q193.415 0.111722 193.612 0.148836Q193.808 0.18595 194.002 0.2322Q194.196 0.27845 194.387 0.333743Q194.577 0.389035 194.764 0.453256Q194.951 0.517478 195.133 0.590497Q195.316 0.663517 195.494 0.745186Q195.672 0.826855 195.845 0.917006Q196.018 1.00716 196.186 1.10561Q196.354 1.20406 196.516 1.31061Q196.678 1.41715 196.834 1.53158Q196.991 1.64601 197.141 1.76809Q197.291 1.89016 197.434 2.01963Q197.578 2.14911 197.714 2.28571Q197.851 2.42232 197.98 2.56578Q198.11 2.70925 198.232 2.85927Q198.354 3.0093 198.468 3.16558Q198.583 3.32186 198.689 3.48408Q198.796 3.6463 198.894 3.81412Q198.993 3.98195 199.083 4.15504Q199.173 4.32813 199.255 4.50613Q199.337 4.68413 199.41 4.86668Q199.483 5.04923 199.547 5.23595Q199.611 5.42268 199.666 5.61319Q199.722 5.80371 199.768 5.99764Q199.814 6.19157 199.851 6.3885Q199.888 6.58544 199.916 6.78498Q199.944 6.98453 199.963 7.18627Q199.981 7.38802 199.991 7.59155Q200 7.79509 200 8L200 192Q200 192.205 199.991 192.408Q199.981 192.612 199.963 192.814Q199.944 193.015 199.916 193.215Q199.888 193.415 199.851 193.612Q199.814 193.808 199.768 194.002Q199.722 194.196 199.666 194.387Q199.611 194.577 199.547 194.764Q199.483 194.951 199.41 195.133Q199.337 195.316 199.255 195.494Q199.173 195.672 199.083 195.845Q198.993 196.018 198.894 196.186Q198.796 196.354 198.689 196.516Q198.583 196.678 198.468 196.834Q198.354 196.991 198.232 197.141Q198.11 197.291 197.98 197.434Q197.851 197.578 197.714 197.714Q197.578 197.851 197.434 197.98Q197.291 198.11 197.141 198.232Q196.991 198.354 196.834 198.468Q196.678 198.583 196.516 198.689Q196.354 198.796 196.186 198.894Q196.018 198.993 195.845 199.083Q195.672 199.173 195.494 199.255Q195.316 199.336 195.133 199.41Q194.951 199.483 194.764 199.547Q194.577 199.611 194.387 199.666Q194.196 199.722 194.002 199.768Q193.808 199.814 193.612 199.851Q193.415 199.888 193.215 199.916Q193.015 199.944 192.814 199.963Q192.612 199.981 192.408 199.991Q192.205 200 192 200L8 200Q7.79509 200 7.59155 199.991Q7.38802 199.981 7.18627 199.963Q6.98453 199.944 6.78498 199.916Q6.58544 199.888 6.3885 199.851Q6.19157 199.814 5.99764 199.768Q5.80371 199.722 5.6132 199.666Q5.42268 199.611 5.23595 199.547Q5.04923 199.483 4.86668 199.41Q4.68413 199.337 4.50613 199.255Q4.32813 199.173 4.15504 199.083Q3.98195 198.993 3.81412 198.894Q3.6463 198.796 3.48408 198.689Q3.32186 198.583 3.16558 198.468Q3.0093 198.354 2.85927 198.232Q2.70925 198.11 2.56578 197.98Q2.42232 197.851 2.28571 197.714Q2.14911 197.578 2.01963 197.434Q1.89016 197.291 1.76809 197.141Q1.64601 196.991 1.53158 196.834Q1.41715 196.678 1.31061 196.516Q1.20406 196.354 1.10561 196.186Q1.00716 196.018 0.917006 195.845Q0.826855 195.672 0.745186 195.494Q0.663517 195.316 0.590497 195.133Q0.517478 194.951 0.453256 194.764Q0.389035 194.577 0.333743 194.387Q0.27845 194.196 0.2322 194.002Q0.18595 193.808 0.148836 193.612Q0.111722 193.415 0.0838199 193.215Q0.055918 193.015 0.037285 192.814Q0.018652 192.612 0.009326 192.408Q0 192.205 0 192L0 8Q0 7.79509 0.009326 7.59155Q0.018652 7.38802 0.037285 7.18627Q0.055918 6.98453 0.0838199 6.78498Q0.111722 6.58544 0.148836 6.3885Q0.18595 6.19157 0.2322 5.99764Q0.27845 5.80371 0.333743 5.6132Q0.389035 5.42268 0.453256 5.23595Q0.517478 5.04923 0.590497 4.86668Q0.663517 4.68413 0.745186 4.50613Q0.826855 4.32813 0.917006 4.15504Q1.00716 3.98195 1.10561 3.81412Q1.20406 3.6463 1.31061 3.48408Q1.41715 3.32186 1.53158 3.16558Q1.64601 3.0093 1.76809 2.85927Q1.89016 2.70925 2.01963 2.56578Q2.14911 2.42232 2.28571 2.28571Q2.42232 2.14911 2.56578 2.01963Q2.70925 1.89016 2.85927 1.76809Q3.0093 1.64601 3.16558 1.53158Q3.32186 1.41715 3.48408 1.31061Q3.6463 1.20406 3.81412 1.10561Q3.98195 1.00716 4.15504 0.917006Q4.32813 0.826855 4.50613 0.745186Q4.68413 0.663517 4.86668 0.590497Q5.04923 0.517478 5.23595 0.453256Q5.42268 0.389035 5.61319 0.333743Q5.80371 0.27845 5.99764 0.2322Q6.19157 0.18595 6.3885 0.148836Q6.58544 0.111722 6.78498 0.0838199Q6.98453 0.055918 7.18627 0.037285Q7.38802 0.018652 7.59155 0.009326Q7.79509 0 8 0Z"/>
	</g>
	<text fill="rgb(0,0,0)" stroke="none" transform="translate(981 30)" font-size="42" font-family="Noto Sans CJK JP Regular, Noto Sans CJK JP" x="0" y="43.392998">
			マシン B
	</text>
	<text fill="rgb(0,0,0)" stroke="none" transform="translate(583 30)" font-size="42" font-family="Noto Sans CJK JP Regular, Noto Sans CJK JP" x="0" y="43.392998">
			マシン A
	</text>
	<text fill="rgb(0,0,0)" stroke="none" transform="translate(754.5 349)" font-size="36" font-family="Noto Sans CJK JP Regular, Noto Sans CJK JP" x="0" y="37.194">
			カウンタを加算
	</text>
	<path fill="rgb(245,165,35)" stroke="none" transform="matrix(-1 0 0 1 1435.29 180)" d="M0 20.2909L175.291 20L175.291 0L215.291 39.4978L175.291 80L175.291 60L0 60.2909L0 20.2909Z"/>
	<text fill="rgb(0,0,0)" stroke="none" transform="translate(1255 146)" font-size="36" font-family="Noto Sans CJK JP Regular, Noto Sans CJK JP" x="0" y="37.194">
			リクエストの流入
	</text>
	<path fill="rgb(245,165,35)" stroke="none" transform="translate(326 180)" d="M0 20.2909L175.291 20L175.291 0L215.291 39.4978L175.291 80L175.291 60L0 60.2909L0 20.2909Z"/>
	<text fill="rgb(0,0,0)" stroke="none" transform="translate(211 146)" font-size="36" font-family="Noto Sans CJK JP Regular, Noto Sans CJK JP" x="0" y="37.194">
			リクエストの流入
	</text>
</svg>
